<svg width="280" height="260" viewBox="0 0 280 260" fill="none" xmlns="http://www.w3.org/2000/svg">
<path d="M262.38 58.48C260.78 59.2 256.29 63.24 254.42 61.42C253.38 60.41 254.69 58.13 255.16 57.12C256.9 53.38 259.27 49.64 261.83 46.4C264.02 43.63 266.7 40.67 267.21 37.03C267.88 32.27 265.23 30.27 260.73 30.26C259.13 30.26 257.95 30.24 256.72 29.12C255.51 28.02 255.35 27.16 253.63 26.7C248.73 25.38 244.49 28.89 241.13 32.08C239.08 34.02 237.1 36.08 235.15 38.1C233.81 39.49 232.64 41.42 230.76 42.16C228.53 43.04 225.4 42.93 223.02 43.27C217.62 44.05 212.24 44.91 206.89 45.97C200.37 46.13 191.99 49.03 187.56 54.04C185.24 56.66 182.23 61.59 178.66 58.46C176.35 56.44 175.52 53.1 173.8 50.65C170.74 46.29 167.36 42.1 164.83 37.39C158.8 29.46 147.91 11.21 136.79 12.03C126.34 14.55 123.72 25.89 118.74 33.44C116.99 36.58 115.18 39.69 113.35 42.78C111.94 45.18 110.68 48.42 108.56 50.25C104.47 53.78 100.8 48.71 97.7701 46.23C93.84 43 89.9501 39.71 86.0001 36.51C81.3401 32.73 76.59 29.05 71.6001 25.71C68.9301 23.92 64.0501 19.1 60.5501 20.31C58.5401 21 57.9301 22.66 56.6401 24.01C53.0701 27.74 52.2401 23.26 49.2401 20.16C43.4601 14.18 38.1601 20.91 39.1801 27.7C40.0101 33.22 43.8301 39.11 41.3301 44.62C39.1201 49.48 34.3901 52.97 31.3501 57.28C29.1501 60.4 24.9201 64.77 24.1301 68.58C22.6701 75.57 32.0301 80.13 36.0401 84.17C38.7401 86.88 45.8001 92.46 41.2001 96.43C39.9501 97.51 37.8401 97.62 36.4101 98.43C34.3401 99.61 32.8801 101.36 31.5401 103.36C28.6901 107.61 26.3601 115.9 29.8101 120.5C31.4901 122.74 34.6501 122.02 36.2901 124.2C38.0601 126.57 36.8801 128.45 34.9301 130.25C32.4301 132.56 29.9401 134.8 27.6401 137.32C21.9301 143.59 17.1101 150.72 13.6301 158.46C9.16006 165.33 8.39006 172.06 14.8801 179.68C12.1701 185.39 12.1601 191.93 14.9701 196.94C11.1501 200.32 -0.759943 215.48 4.19006 220.39C7.55006 223.72 16.3901 221.76 20.4801 221.06C28.6301 219.65 36.1301 216.12 42.5301 210.9C44.0101 209.69 52.6801 211.72 54.7101 211.88C59.3501 212.25 64.0101 212.55 68.6601 212.35C72.4001 212.18 76.1501 211.69 79.8001 210.85C82.4801 210.24 86.2701 208.02 88.84 210.12C91.23 212.08 90.2101 216.76 90.4301 219.41C92.3901 243.08 115.92 246.88 135.57 247.33C155.63 247.79 178.62 248.83 197.36 240.53C201.68 238.61 206.08 235.89 208.45 231.65C209.54 229.7 210.12 227.53 210.2 225.3C210.3 222.66 207.98 218.32 210.62 216.23C212.96 214.37 219.74 214.81 222.81 213.98C224.22 213.6 228.97 216.51 230.43 217.1C232.9 218.1 235.38 219.08 237.87 220.05C242.34 221.79 246.84 223.49 251.35 225.12C256.91 227.13 269.82 234.53 274.82 229.34C280.17 223.79 273.42 217.18 270.01 212.96C265.69 207.59 259.4 202.59 257.24 195.69C256.44 193.12 254.75 192 256.09 189.14C257.07 187.04 259.76 184.52 262.27 184.93C264.49 185.29 265.57 186.34 268.03 185.59C270.67 184.79 272.22 183.2 273.6 180.9C276.71 175.71 276.65 170.97 272.39 166.45C270.71 164.66 268.67 164.25 266.82 162.92C264.53 161.28 265.05 158.84 265.19 156.42C265.36 153.39 265.27 150.24 264.76 147.22C264 142.73 262.78 138.32 261.13 134.07C256.89 123.19 249.59 113.36 239.54 107.23C243.99 105.91 246 100.85 246.66 97.12C261.87 96.26 270.5 84.98 274.83 72.56C278.13 63.39 271.86 54.23 262.41 58.48H262.38Z" fill="#FF4E45" fill-opacity="0.37"/>
<path d="M96.54 56.4C89.65 50.56 81.85 45.48 74.86 40.04C72.43 38.14 69.99 36.26 67.52 34.41C66.17 33.4 64.82 32.26 63.33 31.46C61.46 33.89 59.6 36.31 57.74 38.72C53.69 34.54 49.54 29.55 45.27 26.26C48.05 32.31 49.59 39.46 52.08 46.04C48.21 51.02 44.33 55.97 40.39 60.9C38.21 63.64 34.46 69.9 34.46 69.9C41.06 76.19 47.68 82.43 54.84 88.03C58.33 90.76 61.75 93.67 65.06 96.62C67.54 98.82 70.66 100.13 73.03 102.43C73.71 103.09 74.42 104 75.29 104.32C75.92 103.72 76.34 103.02 76.86 102.33C78.27 100.46 80.27 99.23 81.65 97.29C85.25 92.21 88.76 86.97 92.12 81.72C93.54 79.51 94.63 77.08 96.17 74.94C97.58 72.98 99.17 71.15 100.11 68.88C100.32 68.38 102.86 62.32 102.95 62.42C100.95 60.3 98.79 58.31 96.53 56.4H96.54Z" fill="white"/>
<path d="M97.07 55.87C91.78 51.4 86.1 47.44 80.52 43.35C77.7 41.28 74.94 39.13 72.17 37C69.44 34.9 66.73 32.48 63.71 30.81C63.32 30.59 62.94 30.75 62.68 31.08C60.82 33.5 58.95 35.92 57.09 38.34L58.27 38.19C54.2 33.97 50.44 29.35 45.8 25.73C45.13 25.2 44.26 25.84 44.62 26.64C47.48 32.95 48.93 39.77 51.35 46.24L51.54 45.51C45.42 53.38 38.94 60.95 33.81 69.52C33.64 69.8 33.69 70.2 33.93 70.43C40.7 76.88 47.54 83.21 54.87 89C58.5 91.87 61.84 95.1 65.49 97.94C67.06 99.16 68.8 100.13 70.43 101.28C71.26 101.87 72.05 102.5 72.77 103.22C73.44 103.89 74.05 104.57 74.92 104.97C75.22 105.11 75.58 105.11 75.83 104.85C77.09 103.55 78.03 102.03 79.36 100.78C80.69 99.53 81.91 98.22 82.99 96.69C85.44 93.21 87.82 89.69 90.15 86.13C91.27 84.43 92.41 82.73 93.45 80.97C94.49 79.21 95.33 77.5 96.44 75.86C98.12 73.37 99.96 71.17 101.13 68.37C101.57 67.32 102.02 66.27 102.47 65.22C102.69 64.71 102.91 64.2 103.14 63.69C103.22 63.51 103.36 63.31 103.4 63.12C103.49 62.76 103.81 62.92 103.14 63.13C103.68 62.95 103.87 62.3 103.47 61.88C101.44 59.75 99.29 57.76 97.05 55.86C96.32 55.24 95.25 56.29 95.99 56.92C98.23 58.82 100.38 60.82 102.41 62.94L102.74 61.69C102.2 61.87 102.01 62.55 101.8 63.02C101.36 64 100.94 64.99 100.51 65.98C99.5201 68.3 98.54 70.45 97.02 72.51C94.65 75.73 92.83 79.2 90.67 82.55C88.32 86.19 85.92 89.8 83.46 93.37C82.09 95.36 80.79 97.37 79.02 99.03C78.28 99.73 77.51 100.4 76.84 101.17C76.1 102.02 75.53 102.99 74.74 103.8L75.65 103.68C74.66 103.23 74.03 102.34 73.24 101.63C72.59 101.03 71.88 100.5 71.16 99.99C69.53 98.84 67.76 97.88 66.2 96.63C62.57 93.73 59.19 90.53 55.53 87.65C48.31 81.97 41.61 75.7 34.96 69.37L35.08 70.28C37.66 65.97 40.49 61.95 43.61 58.01C46.22 54.72 48.81 51.41 51.39 48.1C51.78 47.6 52.71 46.8 52.79 46.14C52.88 45.39 52.18 44.21 51.94 43.51C51.3 41.65 50.72 39.78 50.15 37.91C48.9 33.84 47.66 29.77 45.9 25.88L44.72 26.79C49.37 30.41 53.12 35.03 57.19 39.25C57.56 39.63 58.08 39.47 58.37 39.1C60.24 36.68 62.1 34.26 63.96 31.84L62.93 32.11C65.81 33.71 68.4 36 71 38C73.78 40.14 76.54 42.3 79.37 44.38C84.97 48.49 90.68 52.45 95.99 56.93C96.72 57.55 97.79 56.49 97.05 55.87H97.07Z" fill="black"/>
<path d="M140.61 210.61C138.99 210.65 137.39 210.8 135.79 211.22C133.83 211.72 132.09 211.95 130.08 211.68C125.31 211.04 120.61 213.04 116.04 214.18C112.76 215 109.66 216.24 106.73 217.91C104.58 219.28 102.34 221.17 102.03 223.87C101.68 226.88 103.77 229.2 105.75 231.18C107.84 233.27 110.18 234.58 113.11 235.03C114.67 235.27 116.25 235.37 117.83 235.52C123.85 236.1 129.77 237.6 135.83 237.77C146.97 238.09 157.98 238.45 169.05 236.9C170.35 236.72 171.58 236.26 172.87 236.07C174.59 235.82 176.35 236.03 178.06 235.7C182.41 234.89 187.01 234.13 191.2 232.73C194.35 231.68 197.89 229.93 199.93 227.17C201.87 224.54 200.34 220.06 197.65 218.46C194.83 216.77 191.65 215.76 188.48 214.95C182.89 213.51 177.15 212.8 171.42 212.15C169.22 211.9 167.07 211.74 164.87 212.14C163.42 212.41 162.02 212.9 160.55 213.09C158.09 213.41 155.88 212.66 153.55 211.97C150.37 211.02 147.02 210.76 143.72 210.66C142.67 210.63 141.63 210.61 140.6 210.63L140.61 210.61Z" fill="black"/>
<path d="M140.61 209.86C138.83 209.92 137.1 210.13 135.36 210.55C133.32 211.04 131.47 211.03 129.4 210.85C125.72 210.54 122.12 211.66 118.63 212.68C115.09 213.71 111.6 214.59 108.28 216.23C105.65 217.52 102.81 219.33 101.69 222.18C100.54 225.09 101.84 227.92 103.75 230.15C105.8 232.54 108.28 234.56 111.36 235.42C113.07 235.9 114.88 236 116.64 236.16C118.71 236.34 120.77 236.6 122.83 236.92C126.75 237.52 130.66 238.24 134.63 238.46C142.81 238.91 151.11 239 159.29 238.56C163.22 238.35 167.33 238.16 171.16 237.2C173.16 236.7 175.09 236.76 177.12 236.57C179.03 236.39 180.94 235.93 182.82 235.56C186.45 234.86 190.11 234.07 193.53 232.63C196.23 231.49 199.3 229.77 200.82 227.14C202.09 224.94 201.57 222.03 200.23 219.98C198.56 217.41 195.32 216.27 192.54 215.33C188.77 214.05 184.83 213.25 180.9 212.62C177.07 212.01 173.17 211.43 169.3 211.17C167.37 211.04 165.47 211.17 163.58 211.62C161.58 212.1 159.7 212.59 157.62 212.24C155.75 211.92 153.98 211.22 152.14 210.8C150.23 210.37 148.27 210.14 146.32 210C144.37 209.86 142.51 209.81 140.6 209.85C139.64 209.87 139.63 211.37 140.6 211.35C144.23 211.29 147.96 211.42 151.51 212.19C154.77 212.9 157.77 214.29 161.18 213.72C162.89 213.43 164.53 212.83 166.27 212.68C168.14 212.51 170.03 212.72 171.89 212.93C175.64 213.36 179.39 213.83 183.11 214.52C186.59 215.17 190.1 215.97 193.41 217.24C196.28 218.34 199.1 219.69 199.87 222.92C200.64 226.15 198.28 228.29 195.76 229.83C192.94 231.55 189.73 232.48 186.54 233.24C183.04 234.07 179.3 235.03 175.7 235.14C172.12 235.25 168.7 236.24 165.14 236.61C157.68 237.37 150.18 237.36 142.69 237.19C138.97 237.11 135.24 237.1 131.54 236.69C127.9 236.28 124.3 235.58 120.67 235.09C117.22 234.63 113.39 234.84 110.16 233.39C107.52 232.2 104.84 229.76 103.47 227.19C99.37 219.5 112.58 215.92 117.52 214.56C121.32 213.51 125.17 212.06 129.18 212.33C131.06 212.46 132.78 212.6 134.65 212.24C136.65 211.86 138.55 211.42 140.6 211.36C141.56 211.33 141.57 209.83 140.6 209.86H140.61Z" fill="black"/>
<path d="M262.5 218.89C262.5 218.89 250.88 204.22 246.04 197.75C245.17 196.58 243.85 194.35 242.44 192.14C247.14 187.54 250.89 181.94 253.39 175.37C259.73 158.72 254.47 135.26 242.85 122.02C225.16 101.84 185.35 111.09 172.79 132.53C153.07 166.2 182.15 218.11 223.24 203.83C223.3 203.81 223.35 203.79 223.41 203.77C236.28 209.83 262.49 218.9 262.49 218.9L262.5 218.89Z" fill="white"/>
<path d="M263.03 218.36C260.41 215.05 257.79 211.73 255.19 208.4C253.15 205.79 251.11 203.18 249.1 200.55C246.93 197.71 245.01 194.78 243.1 191.76L242.98 192.67C247.96 187.76 251.81 181.82 254.24 175.25C256.35 169.55 257.05 163.37 256.82 157.32C256.36 145 252.2 132.26 244.37 122.64C237.84 114.62 228.05 110.68 217.89 110.13C207.42 109.56 196.68 112.3 187.6 117.5C183.25 120 179.21 123.13 175.92 126.93C172.63 130.73 170.31 135.04 168.63 139.67C165.27 148.9 164.95 159.07 167.09 168.61C169.19 177.94 173.68 186.82 180.24 193.8C186.61 200.58 195.03 205.39 204.31 206.65C209.32 207.33 214.41 206.98 219.31 205.77C220.64 205.44 221.96 204.86 223.29 204.6C223.62 204.54 223.36 204.53 223.27 204.52C223.37 204.53 223.54 204.64 223.62 204.68C223.85 204.8 224.11 204.9 224.35 205.01C224.94 205.28 225.54 205.55 226.13 205.81C228.55 206.88 231 207.89 233.45 208.88C242.41 212.49 251.49 215.82 260.6 219.02C261.16 219.22 261.73 219.42 262.29 219.61C263.2 219.93 263.6 218.48 262.69 218.16C256.09 215.87 249.52 213.48 242.99 211C237.9 209.07 232.82 207.09 227.82 204.92C226.75 204.46 225.68 203.98 224.61 203.49C224.2 203.3 223.76 203 223.31 203.02C222.74 203.04 222.05 203.43 221.5 203.6C219.02 204.37 216.46 204.94 213.88 205.24C204.62 206.3 195.42 203.84 187.83 198.46C180.31 193.13 174.64 185.31 171.22 176.8C167.68 168.02 166.34 158.27 167.81 148.89C169.31 139.31 173.64 130.34 181.03 123.95C188.72 117.29 198.75 113.23 208.8 111.96C218.55 110.73 229.03 112.13 237.21 117.9C241.65 121.03 245.02 125.44 247.68 130.14C250.73 135.51 252.85 141.39 254.11 147.42C255.37 153.45 255.76 159.68 254.99 165.78C254.18 172.21 251.84 178.32 248.34 183.75C246.5 186.6 244.35 189.21 241.93 191.59C241.7 191.82 241.64 192.22 241.81 192.5C243.41 195.02 244.95 197.53 246.76 199.9C248.21 201.8 249.67 203.69 251.13 205.58C254.07 209.36 257.03 213.13 259.99 216.89C260.65 217.73 261.31 218.57 261.98 219.4C262.58 220.16 263.63 219.09 263.04 218.34L263.03 218.36Z" fill="black"/>
<path d="M54.66 172.62C44.92 173.08 27.44 173.14 23.15 184.65C18.07 198.28 39.49 201.16 47.74 201.8C57.31 202.54 68.47 203.57 77.83 201.32C86.07 199.34 93.48 187.3 88.72 179.34C82.21 168.43 64.83 172.14 54.65 172.62H54.66Z" fill="white"/>
<path d="M54.66 171.87C49.33 172.12 43.98 172.28 38.72 173.31C33.57 174.32 28.07 176.24 24.67 180.47C21.88 183.95 20.45 189.1 22.9 193.14C25.17 196.88 29.65 198.82 33.66 200.06C37.89 201.37 42.31 202.05 46.71 202.45C54.49 203.15 62.4 203.82 70.2 203.21C73.64 202.94 77.41 202.61 80.57 201.11C83.22 199.85 85.46 197.78 87.21 195.44C90.64 190.83 92.49 184.2 89.38 178.95C83.24 168.57 68.41 170.75 58.36 171.6C57.13 171.7 55.9 171.8 54.66 171.86C53.7 171.91 53.69 173.41 54.66 173.36C59.81 173.11 64.92 172.37 70.09 172.37C75.2 172.37 80.93 172.92 85.07 176.24C87.18 177.93 88.82 180.29 89.31 182.98C89.8 185.67 89.17 188.75 87.96 191.31C86.75 193.87 84.92 196.26 82.67 198.04C80.19 200.01 77.4 200.76 74.32 201.24C66.6 202.46 58.67 201.88 50.92 201.28C46.58 200.95 42.27 200.58 38.01 199.64C33.95 198.75 29.54 197.48 26.3 194.75C22.9 191.88 22.41 187.76 24.31 183.82C26.55 179.2 31.31 176.77 36.05 175.46C41.05 174.08 46.27 173.73 51.43 173.49C52.51 173.44 53.59 173.4 54.67 173.35C55.63 173.31 55.64 171.81 54.67 171.85L54.66 171.87Z" fill="black"/>
<path d="M29.0699 196.48C24.4099 201.24 19.2299 205.07 15.5699 212.25C24.1099 212.54 35.7699 204.62 43.4899 197.89" fill="white"/>
<path d="M28.54 195.95C23.57 201 18.24 205.46 14.92 211.87C14.66 212.38 14.98 212.99 15.57 213C20.68 213.12 25.67 210.89 30.04 208.45C35.05 205.65 39.69 202.18 44.02 198.42C44.75 197.79 43.69 196.73 42.96 197.36C38.83 200.95 34.4 204.25 29.64 206.96C25.4 209.37 20.56 211.62 15.58 211.5L16.23 212.63C19.49 206.33 24.73 201.97 29.61 197.01C30.29 196.32 29.23 195.26 28.55 195.95H28.54Z" fill="black"/>
<path d="M265.61 67.44C264.16 68.43 262.59 69.66 261.32 70.88C260.57 71.6 259.71 72.21 258.81 72.75C257.06 73.79 255.14 74.57 253.19 75.13C252.36 75.37 251.57 75.6 250.76 75.88C250.3 76.04 249.81 76.06 249.33 76.12C248.76 76.19 248.22 76.38 247.65 76.43C247.06 76.49 246.45 76.43 245.85 76.43C244.77 76.43 243.64 76.53 242.57 76.39C242.26 76.35 241.97 76.26 241.66 76.19C241.25 76.09 239.25 75.84 239.35 75.59C240.87 71.53 241.75 67.27 242.66 63.04C243.45 59.38 245.02 55.63 245.17 51.88C245.19 51.39 245.14 51.17 244.64 51.07C244.1 50.96 243.54 50.9 242.99 50.89C242.19 50.87 241.42 51.01 240.63 51.08C239.37 51.19 238.1 51.1 236.84 51.2C235.37 51.31 233.9 51.47 232.44 51.65C229.51 52.02 226.6 52.49 223.67 52.87C223.23 52.93 222.79 52.98 222.36 53.03C218.47 53.49 214.64 54.3 210.79 55C209.82 55.18 208.84 55.36 207.86 55.51C207.2 55.61 206.56 55.49 205.91 55.58C204.1 55.84 202.18 56.34 200.45 56.92C199.79 57.14 199.27 57.41 198.86 58.01C198.13 59.08 197.62 60.27 197.12 61.45C196.13 63.82 194.82 65.99 194.16 68.54C192.77 73.89 191.18 79.21 190.07 84.63C189.88 85.55 189.98 86.53 189.69 87.42C188.98 89.6 188.29 91.69 187.99 93.98C187.85 95.04 187.64 96.04 187.38 97.07C187.23 97.66 186.89 98.38 186.89 98.99C186.89 99.97 187.5 100.44 188.42 100.65C191.34 101.31 194.53 101.14 197.5 101.31C200.31 101.46 203.09 101.1 205.89 101.1C206.48 101.1 207.12 101.18 207.71 101.07C208.13 101 208.48 100.89 208.93 100.88C210.09 100.87 211.24 100.79 212.39 100.66C213.26 100.56 214.21 100.25 215.08 100.25C215.43 100.25 215.83 100.12 216.18 100.08C216.79 100 217.4 99.95 218.01 99.92C219.11 99.86 220.22 99.86 221.32 99.85C223.13 99.85 224.89 99.71 226.69 99.57C227.38 99.52 228.05 99.55 228.74 99.54C229.57 99.54 230.45 99.59 231.25 99.36C232 99.15 232.78 99.4 233.53 99.14C234.37 98.85 235.23 98.63 236.06 98.32C236.25 98.25 236.28 98.3 236.42 98.14C236.52 98.02 236.61 97.56 236.67 97.39C236.93 96.6 237.14 95.76 237.34 94.95C237.61 93.88 237.69 92.69 238.07 91.66C238.19 91.34 238.36 91.05 238.47 90.72C238.67 90.12 239.24 86.55 239.27 86.56C241.95 87.42 245.18 87.6 247.52 87.54C250.36 87.47 253.01 85.87 255.32 84.37C258.07 82.57 260.48 79.96 262.16 77C263.58 74.52 266.51 70.44 265.64 67.44H265.61Z" fill="#FF4E45"/>
<path d="M265.24 66.8C262.13 68.95 259.62 71.77 256.1 73.3C252.8 74.74 249.21 75.67 245.62 75.69C244.07 75.7 242.67 75.61 241.15 75.34C241.05 75.32 239.82 75.11 239.83 75.06L240.24 75.35C240.35 75.06 240.45 74.77 240.55 74.47C240.75 73.88 240.93 73.29 241.11 72.7C242.22 69 242.83 65.19 243.82 61.47C244.26 59.83 244.77 58.21 245.18 56.57C245.55 55.09 246.24 52.95 245.9 51.42C245.65 50.26 244.41 50.22 243.4 50.16C242.46 50.1 241.55 50.25 240.62 50.33C239.52 50.42 238.41 50.37 237.31 50.42C233.49 50.59 229.68 51.28 225.91 51.81C221.91 52.38 217.93 52.9 213.95 53.65C212.18 53.98 210.41 54.35 208.64 54.63C206.8 54.93 205 54.91 203.16 55.35C201.79 55.68 200.06 55.97 198.92 56.86C197.72 57.79 197.13 59.51 196.56 60.85C195.92 62.36 195.17 63.82 194.51 65.32C193.75 67.06 193.29 68.86 192.8 70.69C191.75 74.62 190.64 78.54 189.74 82.51C189.39 84.06 189.34 85.7 188.94 87.21C188.45 89.11 187.72 90.92 187.38 92.87C187.07 94.62 186.7 96.29 186.27 98.01C185.98 99.15 186.13 100.32 187.21 100.98C188.29 101.64 189.85 101.68 191.08 101.79C193.06 101.97 195.04 101.94 197.03 102.02C200.97 102.18 204.99 101.95 208.9 101.62C210.05 101.52 211.21 101.54 212.36 101.4C213.14 101.3 213.89 101.09 214.67 101.01C216.73 100.78 218.74 100.61 220.82 100.59C223.05 100.57 225.26 100.32 227.49 100.28C229.41 100.25 231.36 100.28 233.25 99.96C234.11 99.82 234.98 99.45 235.82 99.18C236.41 98.99 236.85 98.87 237.14 98.29C237.92 96.72 238.08 94.75 238.44 93.05C238.71 91.79 239.25 90.66 239.49 89.39C239.65 88.53 239.7 87.58 239.97 86.74L239.05 87.26C242.09 88.19 245.8 88.68 248.96 88.11C252.34 87.51 255.68 85.3 258.2 83.04C260.67 80.84 262.34 78.12 264.01 75.3C265.42 72.93 267.05 70.06 266.34 67.21C266.11 66.27 264.66 66.67 264.89 67.61C265.53 70.17 263.7 72.89 262.44 74.99C260.91 77.54 259.38 79.97 257.13 81.98C254.88 83.99 251.79 86.03 248.76 86.62C245.81 87.19 242.27 86.67 239.44 85.81C239.04 85.69 238.64 85.96 238.52 86.33C238.04 87.82 238.14 89.47 237.53 90.94C236.92 92.41 236.81 93.86 236.44 95.33C236.29 95.92 236.2 96.91 235.85 97.4C235.5 97.89 234.37 98.07 233.73 98.25C232.11 98.69 230.2 98.78 228.52 98.76C226.84 98.74 225.02 98.93 223.26 99.01C219.92 99.16 216.62 99.07 213.32 99.7C209.75 100.37 206.04 100.24 202.43 100.44C198.83 100.63 195.16 100.58 191.55 100.31C190.58 100.24 189.55 100.17 188.61 99.9C187.67 99.63 187.53 99.16 187.8 98.2C188.25 96.55 188.56 94.94 188.85 93.25C189.15 91.55 189.66 89.89 190.2 88.25C190.74 86.61 190.74 85 191.1 83.37C191.91 79.71 192.9 76.1 193.88 72.49C194.35 70.75 194.73 68.96 195.34 67.27C195.95 65.58 196.73 64.15 197.43 62.59C198.06 61.18 198.58 59.14 199.77 58.09C200.87 57.13 203.02 56.87 204.41 56.58C206.03 56.24 207.65 56.29 209.28 56.01C211.13 55.69 212.98 55.33 214.83 54.98C218.48 54.29 222.14 53.82 225.82 53.3C229.63 52.77 233.46 52.06 237.31 51.89C239.11 51.81 240.95 51.63 242.75 51.61C243.11 51.61 243.46 51.62 243.82 51.66C244.58 51.75 244.46 51.64 244.4 52.3C244.32 53.3 244.16 54.27 243.94 55.25C243.17 58.7 242.11 62.08 241.35 65.54C240.92 67.5 240.46 69.46 239.92 71.4C239.63 72.44 239.31 73.48 238.95 74.5C238.79 74.97 238.44 75.52 238.72 76.01C239.13 76.72 240.49 76.71 241.18 76.84C242.92 77.19 244.53 77.16 246.3 77.17C249.73 77.19 253.32 76.07 256.46 74.74C258.14 74.03 259.77 73.15 261.19 71.98C262.8 70.65 264.28 69.26 266 68.06C266.79 67.51 266.04 66.21 265.24 66.76V66.8Z" fill="black"/>
<path d="M178.99 76.37C178.91 76.45 176.81 73.65 176.13 72.25C175.54 71.04 174.75 70.2 173.91 69.22C171.32 66.22 170.07 62.21 167.98 58.8C166.44 56.3 164.27 54.29 162.65 51.83C160.58 48.7 158.57 45.57 156.62 42.33C154.85 39.38 152.52 36.88 150.52 34.14C148.75 31.72 146.74 29.27 144.68 27.18C143.1 25.57 141.49 24.38 139.8 23.02C138.88 22.28 138.29 21.29 137.23 22.17C136.44 22.83 135.3 24.6 134.77 25.59C133.59 27.77 132.45 29.88 131.06 31.91C128.88 35.09 127.13 38.54 125.07 41.83C122.63 45.72 120.28 49.73 117.99 53.74C115.14 58.73 112.12 63.53 109.17 68.44C107.69 70.9 106.23 73.51 105.41 76.36L103.42 82.22V87.03C103.38 91.21 102.64 95.15 102.53 99.28C102.3 107.48 102.56 115.75 102.56 123.96C102.56 136.29 102.95 148.7 102.6 161.02C102.49 165.16 101.77 169.24 101.64 173.38C101.49 177.96 101.68 182.61 101.68 187.2V217.26C101.68 218.51 101.68 219.77 101.68 221.02C101.68 222.52 101.25 224.73 101.68 226.16C101.81 226.59 101.95 226.8 102.28 227.13C110.33 235 126.13 233.29 136.25 233.36C144.04 233.41 151.72 231.56 159.49 231.2C163.44 231.02 167.21 229.73 170.7 227.94C172.91 226.81 177.49 224.95 178.79 222.71C179.49 221.5 179.67 219.33 179.86 217.93C180.26 214.92 179.81 211.42 179.82 208.36C179.82 204.53 179.82 200.7 179.82 196.87V138.43C179.82 131.3 180.25 123.99 179.86 116.88C179.7 113.99 178.89 111.47 178.93 108.54C178.96 105.79 178.95 103.05 178.95 100.3C178.95 93.49 178.95 86.68 178.95 79.88V76.37H178.99Z" fill="#FF4E45"/>
<path d="M179.19 75.65C179.54 75.75 179.41 75.83 179.25 75.56C179.12 75.34 178.92 75.14 178.77 74.94C178.3 74.31 177.85 73.66 177.43 73C176.47 71.48 175.61 70.08 174.45 68.7C171.75 65.48 170.59 61.34 168.28 57.88C167.08 56.09 165.59 54.52 164.28 52.82C162.85 50.97 161.63 48.93 160.37 46.96C159.11 44.99 158.03 43.11 156.8 41.21C155.57 39.31 154.28 37.76 152.95 36.08C150.15 32.56 147.6 28.82 144.27 25.75C142.79 24.39 141.16 23.2 139.63 21.89C138.41 20.85 137.28 20.97 136.21 22.17C135.02 23.5 134.2 25.11 133.35 26.67C132.24 28.69 131.02 30.6 129.77 32.53C127.27 36.37 125.05 40.41 122.67 44.32C120.17 48.44 117.82 52.65 115.37 56.79C112.94 60.89 110.38 64.91 107.98 69.02C106.39 71.73 105.27 74.52 104.26 77.48C103.74 79.01 102.87 80.71 102.68 82.32C102.45 84.34 102.74 86.47 102.65 88.51C102.44 93.2 101.79 97.82 101.72 102.53C101.58 112.32 101.77 122.12 101.86 131.91C101.95 141.7 102.19 151.51 101.86 161.31C101.7 166.02 100.93 170.68 100.87 175.4C100.8 180.33 100.96 185.27 100.96 190.2C100.96 199.94 100.96 209.68 100.96 219.41C100.96 221.37 100.62 223.41 100.81 225.36C100.96 226.94 101.78 227.78 102.97 228.74C105.45 230.73 108.42 231.99 111.48 232.79C118.1 234.51 125.07 234.3 131.85 234.18C135.72 234.11 139.56 234.14 143.42 233.75C148.17 233.26 152.87 232.45 157.63 232.1C159.85 231.93 162.03 231.83 164.2 231.29C166.31 230.77 168.35 229.97 170.31 229.03C173.1 227.68 176.38 226.46 178.6 224.23C179.74 223.09 180.13 221.63 180.37 220.07C180.65 218.23 180.84 216.39 180.81 214.53C180.75 209.82 180.6 205.12 180.6 200.4C180.6 180.59 180.6 160.77 180.6 140.96C180.6 131.55 181.57 121.89 180.08 112.56C179.34 107.91 179.73 103.04 179.73 98.34C179.73 93.36 179.73 88.38 179.73 83.4C179.73 81.07 179.73 78.74 179.74 76.4C179.74 75.43 178.24 75.43 178.24 76.4C178.21 83.46 178.23 90.53 178.23 97.59C178.23 99.96 178.23 102.32 178.23 104.69C178.23 106.95 178.12 109.22 178.41 111.46C178.69 113.61 179.09 115.71 179.19 117.88C179.29 120.16 179.31 122.44 179.3 124.73C179.24 134.3 179.1 143.87 179.1 153.44V182.16C179.1 186.91 179.1 191.65 179.1 196.4C179.1 201.15 178.96 205.83 179.15 210.53C179.24 212.66 179.4 214.79 179.25 216.91C179.12 218.62 179.05 220.83 178.18 222.36C177.43 223.67 175.86 224.51 174.59 225.21C173.25 225.95 171.84 226.58 170.47 227.27C168.46 228.27 166.41 229.15 164.23 229.73C161.97 230.33 159.7 230.44 157.38 230.62C152.86 230.97 148.38 231.72 143.88 232.2C140.03 232.61 136.19 232.61 132.32 232.68C129.01 232.74 125.71 232.81 122.4 232.7C116.01 232.47 108.73 231.69 103.65 227.39C102.97 226.82 102.44 226.36 102.31 225.44C102.17 224.47 102.31 223.46 102.37 222.49C102.52 220.44 102.44 218.37 102.44 216.32V202.03C102.44 197.27 102.44 192.5 102.44 187.74C102.44 183.05 102.25 178.36 102.39 173.68C102.53 169.05 103.28 164.47 103.39 159.84C103.5 155.21 103.51 150.46 103.49 145.76C103.44 136.21 103.37 126.66 103.27 117.1C103.22 112.41 103.15 107.71 103.21 103.02C103.27 98.39 103.83 93.84 104.1 89.22C104.23 87.04 104.24 84.82 104.17 82.64C104.17 82.53 104.16 82.41 104.17 82.3C104.17 82.24 104.12 82.57 104.17 82.35C104.26 82.02 104.4 81.69 104.51 81.36L105.59 78.18C106.54 75.39 107.55 72.72 109.04 70.15C111.37 66.11 113.89 62.18 116.28 58.18C120.94 50.35 125.43 42.42 130.19 34.65C131.35 32.76 132.64 30.95 133.74 29.02C134.69 27.35 135.52 25.59 136.64 24.02C136.86 23.71 137.13 23.2 137.46 23.01C138.11 22.62 138.48 22.9 138.96 23.33C139.7 23.97 140.49 24.56 141.25 25.17C142.9 26.5 144.4 27.95 145.82 29.54C148.76 32.83 151.44 36.44 154.08 39.97C156.7 43.48 158.81 47.4 161.21 51.06C163.54 54.61 166.58 57.59 168.53 61.38C169.45 63.17 170.26 65.02 171.27 66.76C172.28 68.52 173.69 69.89 174.83 71.54C175.63 72.7 176.23 73.98 177.05 75.14C177.45 75.71 178.05 76.9 178.79 77.11C179.72 77.38 180.12 75.93 179.19 75.66V75.65Z" fill="black"/>
<path d="M153.64 45.77C154.95 45.77 156.25 45.78 157.56 45.81C159.01 45.84 157.59 44.58 157.21 44.02C156.75 43.33 156.2 42.84 155.72 42.15C155.13 41.29 154.66 40.37 154.03 39.56C153.26 38.56 152.53 37.51 151.89 36.41C151.21 35.23 150.46 34.13 149.73 32.99C149.11 32.02 148.49 30.97 147.66 30.15C146.68 29.17 145.62 28.3 144.67 27.28C143.75 26.29 142.82 25.31 141.85 24.35C141.16 23.67 140.38 22.68 139.52 22.22C139.23 22.06 138.91 21.99 138.62 21.81C138.39 21.67 138.16 21.49 137.88 21.52C137.4 21.58 136.92 22.12 136.62 22.48C136.24 22.92 135.92 23.39 135.6 23.88C135.24 24.43 134.79 24.87 134.43 25.41C131.24 30.1 128.69 35.12 126.02 40.12C125.06 41.91 123.63 43.63 123 45.57C124.19 45.3 125.25 45.81 126.46 45.86C128.1 45.92 129.73 45.78 131.37 45.78C132.62 45.78 133.87 45.78 135.13 45.78C135.77 45.78 136.47 45.88 137.11 45.8C137.96 45.7 138.6 45.37 139.49 45.38C142.38 45.42 145.37 45.12 148.2 45.69C149.92 46.04 151.9 45.78 153.66 45.78L153.64 45.77Z" fill="black"/>
<path d="M153.64 46.52C154.94 46.52 156.26 46.62 157.56 46.56C158.17 46.53 158.79 46.36 158.92 45.68C159.03 45.12 158.65 44.62 158.32 44.21C157.68 43.39 156.97 42.61 156.37 41.77C155 39.86 153.63 37.85 152.43 35.83C151.23 33.81 149.98 31.51 148.35 29.77C146.65 27.95 144.78 26.24 143.03 24.46C141.69 23.09 140.31 21.35 138.36 20.83C136.56 20.35 135.24 23.17 134.37 24.26C132.82 26.22 131.55 28.45 130.31 30.62C128.87 33.14 127.51 35.71 126.15 38.27C124.9 40.63 123.17 42.83 122.28 45.36C122.07 45.96 122.69 46.36 123.2 46.28C124.5 46.08 125.88 46.6 127.2 46.61C128.59 46.62 129.98 46.52 131.37 46.51C133.75 46.5 136.15 46.74 138.48 46.25C139.69 46 141 46.11 142.24 46.08C143.54 46.06 144.85 46.04 146.15 46.14C147.45 46.24 148.59 46.54 149.83 46.59C151.1 46.63 152.37 46.52 153.64 46.5C154.6 46.5 154.61 44.99 153.64 45C152.44 45.01 151.24 45.11 150.04 45.09C148.73 45.06 147.45 44.74 146.15 44.64C144.85 44.54 143.54 44.55 142.24 44.58C141 44.6 139.68 44.48 138.46 44.71C135.96 45.18 133.43 44.97 130.88 45.01C129.42 45.03 127.93 45.19 126.46 45.09C125.19 45 124.08 44.63 122.8 44.83L123.72 45.75C124.39 43.84 125.69 42.24 126.66 40.48C127.72 38.55 128.72 36.59 129.77 34.66C131.77 30.97 133.99 27.52 136.37 24.07C136.67 23.63 136.97 23.15 137.36 22.78C137.79 22.37 137.88 22.36 138.4 22.53C139.32 22.83 140 23.49 140.66 24.17C142.08 25.66 143.48 27.19 144.96 28.62C145.68 29.31 146.45 29.95 147.14 30.67C147.97 31.53 148.57 32.55 149.21 33.55C150.31 35.27 151.33 37.07 152.51 38.74C153.69 40.41 154.87 42.25 156.2 43.9C156.45 44.22 156.69 44.55 156.94 44.87C157.03 44.98 157.62 45.78 157.49 45.28L157.56 45.05C157.32 45.05 157.07 45.04 156.83 45.04C156.5 45.04 156.18 45.03 155.85 45.03C155.11 45.03 154.38 45.02 153.64 45.02C152.67 45.02 152.67 46.52 153.64 46.52Z" fill="black"/>
<path d="M104.71 80.33L104.52 80.31C103.66 80.21 103.54 81.55 104.32 81.78C104.79 81.92 105.26 82.48 105.62 82.79C106.06 83.16 106.5 83.48 107 83.77C108.62 84.71 110.27 85.6 111.83 86.64C113.01 87.43 114.46 88.35 115.95 88.01C117.44 87.67 118.79 86.44 119.95 85.54C122.24 83.76 124.4 81.87 126.77 80.2C126.93 80.09 127.58 79.77 127.64 79.58C127.71 79.37 127.25 79.67 127.24 79.62C127.26 79.69 127.84 79.83 127.92 79.85C129.53 80.39 131.07 80.87 132.63 81.55C134.34 82.3 135.96 83.22 137.66 84C138.47 84.37 139.33 84.63 140.13 85C140.84 85.33 141.46 85.86 142.25 86.03C143.5 86.3 144.7 85.59 145.64 84.85C146.87 83.88 147.96 82.73 149.18 81.74C149.89 81.16 150.6 80.59 151.27 79.96C151.46 79.78 151.85 79.34 151.56 79.39C151.7 79.37 151.96 79.54 152.08 79.59C153.04 80.02 153.96 80.59 154.86 81.14C156.01 81.85 157.08 82.69 158.12 83.56C159.13 84.4 160.11 85.68 161.44 86.03C162.75 86.38 164.08 85.67 165.26 85.2C167.27 84.4 169.2 83.51 171.12 82.53C172.88 81.63 174.67 81.19 176.25 79.93C177.32 79.07 178.43 78.26 179.46 77.35C180.18 76.71 179.12 75.65 178.4 76.29C177.63 76.98 176.82 77.63 175.99 78.26C175.34 78.75 174.73 79.31 174.01 79.69C173.16 80.14 172.21 80.4 171.33 80.78C169.56 81.54 167.9 82.55 166.11 83.28C165.01 83.73 163.32 84.76 162.08 84.63C161.47 84.56 161.02 84.12 160.58 83.73C159.88 83.11 159.2 82.49 158.47 81.91C157.55 81.18 156.63 80.46 155.63 79.84C154.79 79.32 153.94 78.82 153.05 78.38C152.48 78.1 151.76 77.67 151.13 78.01C150.5 78.35 149.97 79.14 149.44 79.6C148.8 80.15 148.13 80.67 147.48 81.21C146.31 82.18 145.25 83.53 143.89 84.25C142.97 84.73 142.37 84.53 141.51 84.04C140.84 83.65 140.17 83.42 139.45 83.14C137.63 82.43 135.99 81.36 134.21 80.59C132.76 79.97 131.38 79.31 129.87 78.89C129.09 78.67 127.82 77.9 127 78.23C126.45 78.45 125.89 79.01 125.41 79.35C124.4 80.07 123.39 80.8 122.42 81.57C120.92 82.75 119.54 84.06 117.98 85.17C117.3 85.66 116.43 86.43 115.57 86.56C114.5 86.72 113.44 85.9 112.61 85.34C110.93 84.22 109.07 83.37 107.39 82.25C106.51 81.67 105.78 80.64 104.74 80.33L104.54 81.8L104.73 81.82C105.69 81.93 105.68 80.43 104.73 80.32L104.71 80.33Z" fill="black"/>
<path d="M56.18 110.71C50.4701 116.25 48.7601 123.95 49.8001 131.56C47.0501 132.67 31.4301 142.6 22.7601 161.66C22.0801 163.16 18.7401 168.14 19.7401 169.67C21.8001 169.36 24.0201 165.45 25.3701 164.04C29.0101 160.25 33.1101 156.65 37.1401 153.28C42.0701 149.16 47.08 144.52 53.07 142.18C55.05 146.23 57.73 149.9 60.93 152.73C75.62 163.2 94.0501 163.88 106.94 142.6C123.82 112.24 79.24 82.61 56.17 110.71H56.18Z" fill="#FF4E45"/>
<path d="M55.65 110.18C49.95 115.82 48.04 123.75 49.05 131.56L49.6 130.84C48.08 131.47 46.68 132.42 45.34 133.35C42.86 135.07 40.51 137 38.3 139.05C31.75 145.12 26.28 152.43 22.48 160.52C21.67 162.23 20.66 163.84 19.85 165.55C19.24 166.84 18.34 168.65 19.1 170.05C19.27 170.35 19.63 170.46 19.95 170.39C22.47 169.86 23.95 166.92 25.45 165.1C27.96 162.06 31.15 159.43 34.12 156.84C37.11 154.24 40.14 151.65 43.22 149.17C46.3 146.69 49.58 144.38 53.27 142.9L52.42 142.56C54.07 145.89 56.16 149.01 58.74 151.68C60.78 153.79 63.31 155.32 65.9 156.67C70.48 159.04 75.55 160.57 80.73 160.6C92.63 160.67 102.98 152.14 108.18 141.87C112.59 133.16 112.41 123.05 107.32 114.67C102.56 106.84 94.31 101.18 85.35 99.35C75.61 97.36 65.7 100.22 58.52 107.08C57.5 108.06 56.55 109.1 55.65 110.19C55.04 110.93 56.09 111.99 56.71 111.25C62.94 103.73 71.95 99.42 81.77 100.32C90.37 101.11 98.57 105.67 103.93 112.4C109.57 119.48 111.42 128.76 108.48 137.37C106.55 143.02 102.72 148.17 98.3 152.12C94.43 155.58 89.72 158.05 84.56 158.83C79.14 159.65 73.57 158.53 68.61 156.3C65.94 155.1 63.03 153.63 60.86 151.64C57.85 148.88 55.53 145.43 53.73 141.8C53.6 141.53 53.17 141.34 52.88 141.46C45.85 144.28 40.17 149.71 34.49 154.56C31.28 157.31 28.11 160.13 25.18 163.18C24.27 164.12 23.53 165.19 22.73 166.22C21.93 167.25 20.92 168.66 19.56 168.95C19.84 169.06 20.12 169.18 20.41 169.29C19.83 168.23 21.29 165.99 21.77 165.09C22.48 163.75 23.22 162.45 23.87 161.08C25.82 156.98 28.19 153.08 30.92 149.45C35.03 143.99 39.97 139.02 45.54 135.04C46.89 134.08 48.68 132.83 50.02 132.28C50.3 132.17 50.62 131.9 50.57 131.56C49.61 124.14 51.29 116.63 56.73 111.24C57.42 110.56 56.36 109.5 55.67 110.18H55.65Z" fill="black"/>
<path d="M243.01 43.22C246.04 40.24 248.67 36.91 251.75 33.98C252.45 33.31 251.39 32.25 250.69 32.92C247.61 35.85 244.97 39.18 241.95 42.16C241.26 42.84 242.32 43.9 243.01 43.22Z" fill="black"/>
<path d="M254.28 41.66C256.34 40.22 258.18 38.53 259.93 36.73C260.6 36.04 259.54 34.98 258.87 35.67C257.21 37.38 255.47 39 253.53 40.36C253.2 40.59 253.04 41.02 253.26 41.39C253.45 41.72 253.95 41.89 254.29 41.66H254.28Z" fill="black"/>
<path d="M42.42 118.15C43.75 114.42 45.64 111.03 48.41 108.18C49.08 107.49 48.02 106.43 47.35 107.12C44.39 110.16 42.39 113.78 40.97 117.76C40.65 118.67 42.09 119.06 42.42 118.16V118.15Z" fill="black"/>
<path d="M37.61 112.66C37.83 111.81 38.12 110.97 38.47 110.17C38.81 109.4 39.16 108.6 39.66 107.92C40.56 106.71 41.83 105.8 42.91 104.75C43.6 104.08 42.54 103.02 41.85 103.69C40.67 104.84 39.35 105.83 38.37 107.16C37.85 107.86 37.49 108.68 37.15 109.48C36.76 110.39 36.42 111.31 36.17 112.26C35.92 113.21 37.37 113.59 37.62 112.66H37.61Z" fill="black"/>
<path d="M261.99 177.99C263.49 178.02 264.28 176.56 264.69 175.33C265.18 173.87 265.36 172.28 265.46 170.75C265.5 170.14 265.52 169.54 265.51 168.93C265.49 167.97 263.99 167.96 264.01 168.93C264.05 170.42 263.92 171.95 263.65 173.36C263.57 173.8 263.47 174.23 263.34 174.66C263.21 175.09 263.13 175.32 262.94 175.67C262.74 176.04 262.72 176.1 262.42 176.36C262.36 176.41 262.36 176.41 262.44 176.35C262.41 176.37 262.38 176.39 262.35 176.41C262.31 176.43 262.09 176.51 262.28 176.45C262.21 176.47 262.14 176.49 262.07 176.51C262.28 176.47 262.04 176.51 261.99 176.51C261.02 176.49 261.02 177.99 261.99 178.01V177.99Z" fill="black"/>
<path d="M268.26 178.14C268.71 175.98 269.91 173.98 269.67 171.71C269.63 171.31 269.36 170.96 268.92 170.96C268.55 170.96 268.13 171.3 268.17 171.71C268.4 173.83 267.23 175.72 266.81 177.75C266.73 178.15 266.93 178.56 267.33 178.67C267.7 178.77 268.17 178.54 268.25 178.15L268.26 178.14Z" fill="black"/>
</svg>
